HIERARCHY
ROOT Hips
{
	OFFSET 0.000000 0.000000 0.000000
	CHANNELS 6 Xposition Yposition Zposition Xrotation Yrotation Zrotation
	JOINT Thigh.L
	{
		OFFSET 0.054659 0.030799 -0.092269
		CHANNELS 3 Xrotation Yrotation Zrotation
		JOINT Shin.L
		{
			OFFSET 0.053851 0.015211 -0.413220
			CHANNELS 3 Xrotation Yrotation Zrotation
			JOINT Foot.L
			{
				OFFSET -0.041744 0.033169 -0.434640
				CHANNELS 3 Xrotation Yrotation Zrotation
				JOINT Toe.L
				{
					OFFSET 0.044973 -0.120043 -0.064204
					CHANNELS 3 Xrotation Yrotation Zrotation
					End Site
					{
						OFFSET 0.000000 0.050000 0.000000
					}
				}
			}
		}
	}
	JOINT Thigh.R
	{
		OFFSET -0.059980 0.027924 -0.102749
		CHANNELS 3 Xrotation Yrotation Zrotation
		JOINT Shin.R
		{
			OFFSET -0.043139 0.020842 -0.396803
			CHANNELS 3 Xrotation Yrotation Zrotation
			JOINT Foot.R
			{
				OFFSET 0.015600 0.021579 -0.443615
				CHANNELS 3 Xrotation Yrotation Zrotation
				JOINT Toe.R
				{
					OFFSET -0.037238 -0.120815 -0.064110
					CHANNELS 3 Xrotation Yrotation Zrotation
					End Site
					{
						OFFSET 0.000000 0.050000 0.000000
					}
				}
			}
		}
	}
	JOINT Spine
	{
		OFFSET -0.002169 0.019961 0.109951
		CHANNELS 3 Xrotation Yrotation Zrotation
		JOINT Spine.2
		{
			OFFSET 0.006912 0.003135 0.135047
			CHANNELS 3 Xrotation Yrotation Zrotation
			JOINT Chest
			{
				OFFSET -0.010444 -0.023259 0.049635
				CHANNELS 3 Xrotation Yrotation Zrotation
				JOINT Neck
				{
					OFFSET -0.009574 0.029034 0.163779
					CHANNELS 3 Xrotation Yrotation Zrotation
					JOINT Head
					{
						OFFSET 0.022485 -0.021883 0.164464
						CHANNELS 3 Xrotation Yrotation Zrotation
						End Site
						{
							OFFSET 0.000000 0.050000 0.000000
						}
					}
				}
				JOINT Clavicle.L
				{
					OFFSET 0.043504 0.008213 0.083777
					CHANNELS 3 Xrotation Yrotation Zrotation
					JOINT UpperArm.L
					{
						OFFSET 0.107518 0.014906 0.062060
						CHANNELS 3 Xrotation Yrotation Zrotation
						JOINT ForeArm.L
						{
							OFFSET 0.265723 0.035557 -0.075991
							CHANNELS 3 Xrotation Yrotation Zrotation
							JOINT Hand.L
							{
								OFFSET 0.265503 0.006072 0.021496
								CHANNELS 3 Xrotation Yrotation Zrotation
								JOINT Thumb1.L
								{
									OFFSET 0.154578 0.002735 0.009681
									CHANNELS 3 Xrotation Yrotation Zrotation
									JOINT Thumb2.L
									{
										OFFSET 0.029894 0.000684 0.002420
										CHANNELS 3 Xrotation Yrotation Zrotation
										End Site
										{
											OFFSET 0.024912 0.000570 0.002017
										}
									}
								}
								JOINT Index1.L
								{
									OFFSET 0.137578 0.002735 0.009681
									CHANNELS 3 Xrotation Yrotation Zrotation
									JOINT Index2.L
									{
										OFFSET 0.029894 0.000684 0.002420
										CHANNELS 3 Xrotation Yrotation Zrotation
										JOINT Index3.L
										{
											OFFSET 0.021923 0.000501 0.001775
											CHANNELS 3 Xrotation Yrotation Zrotation
											End Site
											{
												OFFSET 0.017937 0.000410 0.001452
											}
										}
									}
								}
								JOINT Middle1.L
								{
									OFFSET 0.119578 0.002735 0.009681
									CHANNELS 3 Xrotation Yrotation Zrotation
									JOINT Middle2.L
									{
										OFFSET 0.030891 0.000706 0.002501
										CHANNELS 3 Xrotation Yrotation Zrotation
										JOINT Middle3.L
										{
											OFFSET 0.021923 0.000501 0.001775
											CHANNELS 3 Xrotation Yrotation Zrotation
											End Site
											{
												OFFSET 0.017937 0.000410 0.001452
											}
										}
									}
								}
								JOINT Ring1.L
								{
									OFFSET 0.101578 0.002735 0.009681
									CHANNELS 3 Xrotation Yrotation Zrotation
									JOINT Ring2.L
									{
										OFFSET 0.028898 0.000661 0.002340
										CHANNELS 3 Xrotation Yrotation Zrotation
										JOINT Ring3.L
										{
											OFFSET 0.019930 0.000456 0.001614
											CHANNELS 3 Xrotation Yrotation Zrotation
											End Site
											{
												OFFSET 0.016940 0.000387 0.001372
											}
										}
									}
								}
								JOINT Pinky1.L
								{
									OFFSET 0.085578 0.002735 0.009681
									CHANNELS 3 Xrotation Yrotation Zrotation
									JOINT Pinky2.L
									{
										OFFSET 0.023916 0.000547 0.001936
										CHANNELS 3 Xrotation Yrotation Zrotation
										JOINT Pinky3.L
										{
											OFFSET 0.016940 0.000387 0.001372
											CHANNELS 3 Xrotation Yrotation Zrotation
											End Site
											{
												OFFSET 0.013951 0.000319 0.001129
											}
										}
									}
								}
							}
						}
					}
				}
				JOINT Clavicle.R
				{
					OFFSET -0.041693 0.014316 0.083281
					CHANNELS 3 Xrotation Yrotation Zrotation
					JOINT UpperArm.R
					{
						OFFSET -0.092850 0.009844 0.057559
						CHANNELS 3 Xrotation Yrotation Zrotation
						JOINT ForeArm.R
						{
							OFFSET -0.281951 0.022808 -0.042946
							CHANNELS 3 Xrotation Yrotation Zrotation
							JOINT Hand.R
							{
								OFFSET -0.262162 0.018746 -0.003385
								CHANNELS 3 Xrotation Yrotation Zrotation
								JOINT Thumb1.R
								{
									OFFSET -0.154684 0.008558 -0.001545
									CHANNELS 3 Xrotation Yrotation Zrotation
									JOINT Thumb2.R
									{
										OFFSET -0.029921 0.002139 -0.000386
										CHANNELS 3 Xrotation Yrotation Zrotation
										End Site
										{
											OFFSET -0.024934 0.001783 -0.000322
										}
									}
								}
								JOINT Index1.R
								{
									OFFSET -0.137684 0.008558 -0.001545
									CHANNELS 3 Xrotation Yrotation Zrotation
									JOINT Index2.R
									{
										OFFSET -0.029921 0.002139 -0.000386
										CHANNELS 3 Xrotation Yrotation Zrotation
										JOINT Index3.R
										{
											OFFSET -0.021942 0.001569 -0.000283
											CHANNELS 3 Xrotation Yrotation Zrotation
											End Site
											{
												OFFSET -0.017953 0.001284 -0.000232
											}
										}
									}
								}
								JOINT Middle1.R
								{
									OFFSET -0.119684 0.008558 -0.001545
									CHANNELS 3 Xrotation Yrotation Zrotation
									JOINT Middle2.R
									{
										OFFSET -0.030918 0.002211 -0.000399
										CHANNELS 3 Xrotation Yrotation Zrotation
										JOINT Middle3.R
										{
											OFFSET -0.021942 0.001569 -0.000283
											CHANNELS 3 Xrotation Yrotation Zrotation
											End Site
											{
												OFFSET -0.017953 0.001284 -0.000232
											}
										}
									}
								}
								JOINT Ring1.R
								{
									OFFSET -0.101684 0.008558 -0.001545
									CHANNELS 3 Xrotation Yrotation Zrotation
									JOINT Ring2.R
									{
										OFFSET -0.028924 0.002068 -0.000373
										CHANNELS 3 Xrotation Yrotation Zrotation
										JOINT Ring3.R
										{
											OFFSET -0.019947 0.001426 -0.000258
											CHANNELS 3 Xrotation Yrotation Zrotation
											End Site
											{
												OFFSET -0.016955 0.001212 -0.000219
											}
										}
									}
								}
								JOINT Pinky1.R
								{
									OFFSET -0.085684 0.008558 -0.001545
									CHANNELS 3 Xrotation Yrotation Zrotation
									JOINT Pinky2.R
									{
										OFFSET -0.023937 0.001712 -0.000309
										CHANNELS 3 Xrotation Yrotation Zrotation
										JOINT Pinky3.R
										{
											OFFSET -0.016955 0.001212 -0.000219
											CHANNELS 3 Xrotation Yrotation Zrotation
											End Site
											{
												OFFSET -0.013963 0.000998 -0.000180
											}
										}
									}
								}
							}
						}
					}
				}
			}
		}
	}
}
MOTION
Frames: 8
Frame Time: 0.04166667
-0.002577 -0.037504 1.082049 -5.153213 0.918939 1.771668 2.725808 1.758270 -1.767685 4.764097 -0.566109 -10.387243 -6.220145 0.229610 8.566427 3.059443 -3.578208 0.426811 0.426712 -1.640222 1.446885 7.532561 0.848399 4.351623 -4.258116 -3.272763 -4.076458 0.870406 -2.014885 -1.265760 4.841962 0.100065 2.398764 5.012416 -4.284072 -2.454598 -6.235676 3.634876 0.532905 10.475195 0.005132 2.646270 15.692998 1.283744 1.691167 6.792592 21.718496 2.776408 17.981862 48.355358 -22.902163 18.026804 -2.522173 -20.594773 4.187237 1.176482 -8.164971 0.000000 0.000000 0.000000 0.000000 0.000000 0.000000 0.000000 0.000000 0.000000 0.000000 0.000000 0.000000 0.000000 0.000000 0.000000 0.000000 0.000000 0.000000 0.000000 0.000000 0.000000 0.000000 0.000000 0.000000 0.000000 0.000000 0.000000 0.000000 0.000000 0.000000 0.000000 0.000000 0.000000 0.000000 0.000000 0.000000 0.000000 0.000000 0.000000 0.000000 0.000000 0.000000 3.454030 -15.136386 0.754020 31.188392 -52.258735 29.133712 11.223615 3.208064 25.673030 -2.985383 -3.665169 4.496785 0.000000 0.000000 0.000000 0.000000 0.000000 0.000000 0.000000 0.000000 0.000000 0.000000 0.000000 0.000000 0.000000 0.000000 0.000000 0.000000 0.000000 0.000000 0.000000 0.000000 0.000000 0.000000 0.000000 0.000000 0.000000 0.000000 0.000000 0.000000 0.000000 0.000000 0.000000 0.000000 0.000000 0.000000 0.000000 0.000000 0.000000 0.000000 0.000000 0.000000 0.000000 0.000000
-0.002582 -0.037273 1.081998 -5.109983 0.886951 1.808802 2.820685 1.843857 -1.779093 4.500593 -0.608812 -10.449303 -6.137109 0.199053 8.650671 3.048166 -3.572988 0.446686 0.384923 -1.614031 1.493971 7.511518 0.871288 4.362937 -4.255753 -3.259987 -4.188852 0.854194 -1.998793 -1.258812 4.774182 0.109288 2.353125 4.962842 -4.262497 -2.455362 -6.119255 3.646017 0.522400 10.402800 0.023084 2.670471 15.770066 1.365672 1.634891 6.752308 21.701185 2.760214 18.031537 48.305846 -22.926967 18.042326 -2.493667 -20.659199 4.176499 1.171237 -8.096014 0.000000 0.000000 0.000000 0.000000 0.000000 0.000000 0.000000 0.000000 0.000000 0.000000 0.000000 0.000000 0.000000 0.000000 0.000000 0.000000 0.000000 0.000000 0.000000 0.000000 0.000000 0.000000 0.000000 0.000000 0.000000 0.000000 0.000000 0.000000 0.000000 0.000000 0.000000 0.000000 0.000000 0.000000 0.000000 0.000000 0.000000 0.000000 0.000000 0.000000 0.000000 0.000000 3.396140 -15.132633 0.763965 31.201207 -52.202278 29.087779 11.237303 3.119577 25.776161 -3.084666 -3.588874 4.443505 0.000000 0.000000 0.000000 0.000000 0.000000 0.000000 0.000000 0.000000 0.000000 0.000000 0.000000 0.000000 0.000000 0.000000 0.000000 0.000000 0.000000 0.000000 0.000000 0.000000 0.000000 0.000000 0.000000 0.000000 0.000000 0.000000 0.000000 0.000000 0.000000 0.000000 0.000000 0.000000 0.000000 0.000000 0.000000 0.000000 0.000000 0.000000 0.000000 0.000000 0.000000 0.000000
-0.002555 -0.036474 1.081936 -5.043320 0.868433 1.852675 2.894414 1.891835 -1.748917 4.323772 -0.631607 -10.356025 -6.146317 0.232657 8.628687 3.056630 -3.550226 0.437099 0.398976 -1.579711 1.496520 7.374984 0.875447 4.364958 -4.250315 -3.277964 -4.193040 0.854963 -1.963985 -1.254714 4.764104 0.171895 2.347811 5.027663 -4.310203 -2.479432 -6.233203 3.666136 0.518229 10.452599 0.050373 2.684055 15.747920 1.400101 1.641766 6.814423 21.702158 2.743875 18.031318 48.274717 -22.947267 17.993149 -2.471715 -20.692715 4.153657 1.171712 -8.094035 0.000000 0.000000 0.000000 0.000000 0.000000 0.000000 0.000000 0.000000 0.000000 0.000000 0.000000 0.000000 0.000000 0.000000 0.000000 0.000000 0.000000 0.000000 0.000000 0.000000 0.000000 0.000000 0.000000 0.000000 0.000000 0.000000 0.000000 0.000000 0.000000 0.000000 0.000000 0.000000 0.000000 0.000000 0.000000 0.000000 0.000000 0.000000 0.000000 0.000000 0.000000 0.000000 3.447610 -15.148117 0.758995 31.204244 -52.167462 29.051256 11.283888 3.091613 25.821902 -3.122416 -3.624391 4.421255 0.000000 0.000000 0.000000 0.000000 0.000000 0.000000 0.000000 0.000000 0.000000 0.000000 0.000000 0.000000 0.000000 0.000000 0.000000 0.000000 0.000000 0.000000 0.000000 0.000000 0.000000 0.000000 0.000000 0.000000 0.000000 0.000000 0.000000 0.000000 0.000000 0.000000 0.000000 0.000000 0.000000 0.000000 0.000000 0.000000 0.000000 0.000000 0.000000 0.000000 0.000000 0.000000
-0.002438 -0.035706 1.081872 -4.983826 0.843298 1.903197 2.950548 1.932604 -1.748410 4.230302 -0.650563 -10.257043 -6.179991 0.251961 8.589525 3.035662 -3.559691 0.456717 0.380948 -1.558294 1.546773 7.312155 0.896090 4.396083 -4.265955 -3.273457 -4.239206 0.862761 -1.982102 -1.249743 4.713070 0.178459 2.327084 4.969009 -4.264764 -2.498593 -6.100617 3.665083 0.500467 10.342423 0.034277 2.704277 15.712789 1.405121 1.579436 6.698567 21.655550 2.757848 18.122496 48.256032 -23.001461 18.031746 -2.497820 -20.715946 4.190709 1.185803 -8.150285 0.000000 0.000000 0.000000 0.000000 0.000000 0.000000 0.000000 0.000000 0.000000 0.000000 0.000000 0.000000 0.000000 0.000000 0.000000 0.000000 0.000000 0.000000 0.000000 0.000000 0.000000 0.000000 0.000000 0.000000 0.000000 0.000000 0.000000 0.000000 0.000000 0.000000 0.000000 0.000000 0.000000 0.000000 0.000000 0.000000 0.000000 0.000000 0.000000 0.000000 0.000000 0.000000 3.361166 -15.169161 0.762572 31.299441 -52.154334 29.060359 11.235186 3.050981 25.830727 -3.114308 -3.621677 4.441583 0.000000 0.000000 0.000000 0.000000 0.000000 0.000000 0.000000 0.000000 0.000000 0.000000 0.000000 0.000000 0.000000 0.000000 0.000000 0.000000 0.000000 0.000000 0.000000 0.000000 0.000000 0.000000 0.000000 0.000000 0.000000 0.000000 0.000000 0.000000 0.000000 0.000000 0.000000 0.000000 0.000000 0.000000 0.000000 0.000000 0.000000 0.000000 0.000000 0.000000 0.000000 0.000000
-0.002337 -0.033932 1.081767 -4.866636 0.833928 1.953251 2.929438 1.943719 -1.734563 4.270100 -0.647902 -10.096566 -6.280049 0.248252 8.510196 3.004513 -3.593796 0.476534 0.360641 -1.533501 1.558947 7.208266 0.887217 4.432556 -4.299833 -3.278990 -4.201073 0.881707 -2.039895 -1.277956 4.675907 0.188392 2.313133 4.850443 -4.216042 -2.527771 -5.880323 3.659049 0.466305 10.190222 -0.020694 2.786325 15.771072 1.452554 1.488244 6.557836 21.553926 2.748495 18.246056 48.292766 -23.051779 18.106156 -2.551830 -20.736932 4.428073 1.148969 -8.192031 0.000000 0.000000 0.000000 0.000000 0.000000 0.000000 0.000000 0.000000 0.000000 0.000000 0.000000 0.000000 0.000000 0.000000 0.000000 0.000000 0.000000 0.000000 0.000000 0.000000 0.000000 0.000000 0.000000 0.000000 0.000000 0.000000 0.000000 0.000000 0.000000 0.000000 0.000000 0.000000 0.000000 0.000000 0.000000 0.000000 0.000000 0.000000 0.000000 0.000000 0.000000 0.000000 3.230816 -15.238127 0.751405 31.392843 -52.142619 29.016773 11.058651 2.983321 25.832892 -3.027315 -3.619576 4.465497 0.000000 0.000000 0.000000 0.000000 0.000000 0.000000 0.000000 0.000000 0.000000 0.000000 0.000000 0.000000 0.000000 0.000000 0.000000 0.000000 0.000000 0.000000 0.000000 0.000000 0.000000 0.000000 0.000000 0.000000 0.000000 0.000000 0.000000 0.000000 0.000000 0.000000 0.000000 0.000000 0.000000 0.000000 0.000000 0.000000 0.000000 0.000000 0.000000 0.000000 0.000000 0.000000
-0.002485 -0.033945 1.081742 -4.877580 0.842347 1.833215 3.016759 2.010827 -1.764300 4.259415 -0.720285 -10.103445 -6.363299 0.153147 8.652681 2.999777 -3.644081 0.482283 0.328998 -1.532506 1.610568 7.266043 0.926608 4.502733 -4.374544 -3.302670 -4.188779 0.866366 -2.075413 -1.265054 4.668841 0.140125 2.294275 4.707391 -4.129870 -2.535282 -5.670125 3.675870 0.457189 10.080699 -0.051848 2.870913 15.725702 1.546158 1.503519 6.428637 21.526937 2.770074 18.177061 48.344114 -23.051151 18.101183 -2.595350 -20.562687 4.361535 1.249904 -8.189311 0.000000 0.000000 0.000000 0.000000 0.000000 0.000000 0.000000 0.000000 0.000000 0.000000 0.000000 0.000000 0.000000 0.000000 0.000000 0.000000 0.000000 0.000000 0.000000 0.000000 0.000000 0.000000 0.000000 0.000000 0.000000 0.000000 0.000000 0.000000 0.000000 0.000000 0.000000 0.000000 0.000000 0.000000 0.000000 0.000000 0.000000 0.000000 0.000000 0.000000 0.000000 0.000000 3.084428 -15.202361 0.743750 31.587035 -52.278547 29.205434 10.984581 3.127171 25.735449 -3.067123 -3.638617 4.437885 0.000000 0.000000 0.000000 0.000000 0.000000 0.000000 0.000000 0.000000 0.000000 0.000000 0.000000 0.000000 0.000000 0.000000 0.000000 0.000000 0.000000 0.000000 0.000000 0.000000 0.000000 0.000000 0.000000 0.000000 0.000000 0.000000 0.000000 0.000000 0.000000 0.000000 0.000000 0.000000 0.000000 0.000000 0.000000 0.000000 0.000000 0.000000 0.000000 0.000000 0.000000 0.000000
-0.002719 -0.032320 1.081683 -4.831932 0.846200 1.838703 3.088048 2.022333 -1.770368 4.280819 -0.713654 -10.158943 -6.470147 0.080830 8.690234 2.997949 -3.647989 0.475750 0.376078 -1.521959 1.636250 7.207003 0.935952 4.576384 -4.430851 -3.276954 -4.235943 0.857432 -2.077386 -1.257245 4.612350 0.151861 2.278547 4.709477 -4.143988 -2.561748 -5.650057 3.680768 0.442577 10.061525 -0.044083 2.930081 15.756886 1.599592 1.544444 6.448826 21.524489 2.771750 18.129381 48.381928 -23.019606 18.134796 -2.630352 -20.497842 4.471588 1.212730 -8.138299 0.000000 0.000000 0.000000 0.000000 0.000000 0.000000 0.000000 0.000000 0.000000 0.000000 0.000000 0.000000 0.000000 0.000000 0.000000 0.000000 0.000000 0.000000 0.000000 0.000000 0.000000 0.000000 0.000000 0.000000 0.000000 0.000000 0.000000 0.000000 0.000000 0.000000 0.000000 0.000000 0.000000 0.000000 0.000000 0.000000 0.000000 0.000000 0.000000 0.000000 0.000000 0.000000 3.107040 -15.210980 0.696486 31.567110 -52.307273 29.158464 10.940871 3.107179 25.671145 -3.116691 -3.668848 4.395597 0.000000 0.000000 0.000000 0.000000 0.000000 0.000000 0.000000 0.000000 0.000000 0.000000 0.000000 0.000000 0.000000 0.000000 0.000000 0.000000 0.000000 0.000000 0.000000 0.000000 0.000000 0.000000 0.000000 0.000000 0.000000 0.000000 0.000000 0.000000 0.000000 0.000000 0.000000 0.000000 0.000000 0.000000 0.000000 0.000000 0.000000 0.000000 0.000000 0.000000 0.000000 0.000000
-0.003029 -0.030673 1.081624 -4.783704 0.849539 1.869196 3.146832 2.029524 -1.782590 4.319696 -0.699203 -10.258448 -6.591096 0.010567 8.718453 2.992992 -3.650417 0.471681 0.429849 -1.517535 1.637812 7.117595 0.945607 4.660537 -4.476965 -3.253743 -4.307971 0.841320 -2.082391 -1.251145 4.553956 0.144587 2.260761 4.683793 -4.151002 -2.585221 -5.600064 3.678105 0.415158 10.058690 -0.038224 2.994043 15.806880 1.656840 1.643703 6.454894 21.515908 2.765604 18.105873 48.436605 -23.013036 18.172323 -2.663447 -20.439905 4.590439 1.204528 -8.043703 0.000000 0.000000 0.000000 0.000000 0.000000 0.000000 0.000000 0.000000 0.000000 0.000000 0.000000 0.000000 0.000000 0.000000 0.000000 0.000000 0.000000 0.000000 0.000000 0.000000 0.000000 0.000000 0.000000 0.000000 0.000000 0.000000 0.000000 0.000000 0.000000 0.000000 0.000000 0.000000 0.000000 0.000000 0.000000 0.000000 0.000000 0.000000 0.000000 0.000000 0.000000 0.000000 3.124074 -15.203060 0.651427 31.547278 -52.314915 29.102962 10.921483 3.068159 25.620610 -3.127702 -3.727055 4.315274 0.000000 0.000000 0.000000 0.000000 0.000000 0.000000 0.000000 0.000000 0.000000 0.000000 0.000000 0.000000 0.000000 0.000000 0.000000 0.000000 0.000000 0.000000 0.000000 0.000000 0.000000 0.000000 0.000000 0.000000 0.000000 0.000000 0.000000 0.000000 0.000000 0.000000 0.000000 0.000000 0.000000 0.000000 0.000000 0.000000 0.000000 0.000000 0.000000 0.000000 0.000000 0.000000
